G04 MADE WITH FRITZING*
G04 WWW.FRITZING.ORG*
G04 DOUBLE SIDED*
G04 HOLES PLATED*
G04 CONTOUR ON CENTER OF CONTOUR VECTOR*
%ASAXBY*%
%FSLAX23Y23*%
%MOIN*%
%OFA0B0*%
%SFA1.0B1.0*%
%ADD10C,0.091000*%
%ADD11C,0.078000*%
%ADD12C,0.047859*%
%ADD13R,0.091000X0.091000*%
%ADD14R,0.078000X0.078000*%
%ADD15C,0.024000*%
%LNCOPPER0*%
G90*
G70*
G54D10*
X1434Y1986D03*
X1828Y1887D03*
X1434Y1789D03*
G54D11*
X2028Y1987D03*
X2028Y1887D03*
X2028Y1787D03*
X2028Y987D03*
X2028Y887D03*
X2028Y787D03*
X1428Y287D03*
X1528Y287D03*
X2028Y1687D03*
X2028Y1587D03*
X2028Y1487D03*
X2028Y1387D03*
X2028Y1287D03*
X2028Y687D03*
X2028Y587D03*
X2028Y487D03*
X2028Y387D03*
X2028Y1187D03*
X2028Y1087D03*
G54D12*
X1128Y1687D03*
X230Y1887D03*
X230Y1787D03*
X230Y1687D03*
X230Y1587D03*
X230Y1487D03*
X1128Y1787D03*
X1128Y1887D03*
X1128Y1587D03*
X230Y1388D03*
X230Y1288D03*
X230Y1188D03*
X230Y1088D03*
X230Y988D03*
X230Y888D03*
X230Y788D03*
X230Y689D03*
X230Y589D03*
X230Y489D03*
X1128Y1188D03*
X1128Y1088D03*
X1128Y988D03*
X1128Y888D03*
X1128Y788D03*
X1128Y689D03*
X1128Y589D03*
X1128Y489D03*
X1128Y1487D03*
X1128Y1388D03*
X1128Y1288D03*
G54D13*
X1433Y1986D03*
G54D14*
X2028Y1187D03*
G54D15*
X1627Y1387D02*
X2009Y1387D01*
D02*
X1627Y1686D02*
X1627Y1387D01*
D02*
X1627Y1887D02*
X1627Y1686D01*
D02*
X1129Y1885D02*
X1627Y1887D01*
D02*
X1129Y1885D02*
X1129Y1885D01*
D02*
X1627Y189D02*
X2127Y188D01*
D02*
X926Y189D02*
X1627Y189D01*
D02*
X2127Y188D02*
X2127Y588D01*
D02*
X2127Y588D02*
X2047Y587D01*
D02*
X926Y1687D02*
X926Y189D01*
D02*
X1116Y1687D02*
X926Y1687D01*
D02*
X2228Y688D02*
X2047Y687D01*
D02*
X2228Y88D02*
X2228Y688D01*
D02*
X830Y88D02*
X2228Y88D01*
D02*
X829Y1788D02*
X830Y88D01*
D02*
X1116Y1787D02*
X829Y1788D01*
D02*
X1139Y888D02*
X1627Y887D01*
D02*
X1627Y887D02*
X1627Y1188D01*
D02*
X1627Y1188D02*
X2009Y1187D01*
D02*
X2028Y1006D02*
X2028Y1068D01*
G04 End of Copper0*
M02*