; NON-PLATED HOLES START AT T1
; THROUGH (PLATED) HOLES START AT T100
M48
INCH
T100C0.038000
T101C0.022334
T102C0.035000
%
T100
X030170Y014927
X030170Y009927
X021170Y002927
X019170Y002927
X030170Y019927
X020170Y002927
X030170Y011927
X030170Y015927
X030170Y008927
X030170Y016927
X015170Y002927
X030170Y018927
X030170Y013927
X030170Y012927
X030170Y017927
X014170Y002927
X022170Y002927
X030170Y010927
X030170Y007927
T101
X011170Y006941
X002196Y018922
X011170Y005942
X002196Y008938
X011170Y008938
X002196Y005942
X011170Y018922
X002196Y006941
X002196Y009936
X011170Y011933
X002196Y013930
X002196Y004944
X011170Y016925
X011170Y012931
X011170Y017924
X011170Y007939
X011170Y015927
X011170Y014928
X011170Y010934
X002196Y010934
X002196Y014928
X002196Y007939
X002196Y015927
X002196Y012931
X002196Y017924
X002196Y016925
X011170Y013930
X011170Y004944
X002196Y011933
X011170Y009936
T102
X021170Y018927
X019050Y019911
X019050Y017943
T00
M30
