G04 MADE WITH FRITZING*
G04 WWW.FRITZING.ORG*
G04 DOUBLE SIDED*
G04 HOLES PLATED*
G04 CONTOUR ON CENTER OF CONTOUR VECTOR*
%ASAXBY*%
%FSLAX23Y23*%
%MOIN*%
%OFA0B0*%
%SFA1.0B1.0*%
%ADD10C,0.091000*%
%ADD11C,0.078000*%
%ADD12C,0.047859*%
%ADD13R,0.091000X0.091000*%
%ADD14R,0.078000X0.078000*%
%ADD15C,0.024000*%
%LNCOPPER1*%
G90*
G70*
G54D10*
X1434Y1986D03*
X1828Y1887D03*
X1434Y1789D03*
G54D11*
X2028Y1987D03*
X2028Y1887D03*
X2028Y1787D03*
X2028Y987D03*
X2028Y887D03*
X2028Y787D03*
X1428Y287D03*
X1528Y287D03*
X2028Y1687D03*
X2028Y1587D03*
X2028Y1487D03*
X2028Y1387D03*
X2028Y1287D03*
X2028Y687D03*
X2028Y587D03*
X2028Y487D03*
X2028Y387D03*
X2028Y1187D03*
X2028Y1087D03*
G54D12*
X1128Y1687D03*
X230Y1887D03*
X230Y1787D03*
X230Y1687D03*
X230Y1587D03*
X230Y1487D03*
X1128Y1787D03*
X1128Y1887D03*
X1128Y1587D03*
X230Y1388D03*
X230Y1288D03*
X230Y1188D03*
X230Y1088D03*
X230Y988D03*
X230Y888D03*
X230Y788D03*
X230Y689D03*
X230Y589D03*
X230Y489D03*
X1128Y1188D03*
X1128Y1088D03*
X1128Y988D03*
X1128Y888D03*
X1128Y788D03*
X1128Y689D03*
X1128Y589D03*
X1128Y489D03*
X1128Y1487D03*
X1128Y1388D03*
X1128Y1288D03*
G54D13*
X1433Y1986D03*
G54D14*
X2028Y1187D03*
G54D15*
X926Y1987D02*
X1328Y1988D01*
D02*
X1328Y1988D02*
X1328Y1887D01*
D02*
X2009Y1487D02*
X1139Y1487D01*
D02*
X1853Y1887D02*
X2009Y1887D01*
D02*
X226Y287D02*
X230Y478D01*
D02*
X1409Y287D02*
X226Y287D01*
D02*
X1328Y1786D02*
X1408Y1788D01*
D02*
X1328Y1887D02*
X1328Y1786D01*
D02*
X1116Y1188D02*
X926Y1185D01*
D02*
X926Y1185D02*
X926Y1987D01*
D02*
X2028Y1887D02*
X2028Y1806D01*
D02*
X1139Y489D02*
X2009Y487D01*
D02*
X2027Y2088D02*
X1728Y2088D01*
D02*
X1728Y2088D02*
X1429Y2088D01*
D02*
X1429Y2088D02*
X1433Y2011D01*
D02*
X2027Y2006D02*
X2027Y2088D01*
D02*
X2047Y987D02*
X2127Y987D01*
D02*
X2127Y387D02*
X2047Y387D01*
D02*
X2127Y987D02*
X2127Y387D01*
D02*
X2127Y987D02*
X2127Y1088D01*
D02*
X2127Y1088D02*
X2047Y1087D01*
D02*
X2127Y1088D02*
X2127Y1286D01*
D02*
X2127Y1686D02*
X2047Y1687D01*
D02*
X2127Y1286D02*
X2127Y1686D01*
D02*
X2127Y1686D02*
X2127Y1988D01*
D02*
X2127Y1988D02*
X2047Y1987D01*
D02*
X2009Y387D02*
X1026Y387D01*
D02*
X1026Y588D02*
X1116Y589D01*
D02*
X1026Y387D02*
X1026Y588D01*
D02*
X127Y588D02*
X127Y188D01*
D02*
X219Y589D02*
X127Y588D01*
D02*
X1527Y188D02*
X1527Y268D01*
D02*
X127Y188D02*
X1527Y188D01*
D02*
X1139Y1587D02*
X2009Y1587D01*
D02*
X1139Y1388D02*
X1926Y1387D01*
D02*
X1926Y1286D02*
X2009Y1287D01*
D02*
X1926Y1387D02*
X1926Y1286D01*
D02*
X1139Y988D02*
X1728Y987D01*
D02*
X1728Y987D02*
X1728Y786D01*
D02*
X1728Y786D02*
X2009Y787D01*
D02*
X1828Y1088D02*
X1127Y1088D01*
D02*
X1127Y1088D02*
X1127Y1088D01*
D02*
X1828Y887D02*
X1828Y1088D01*
D02*
X2009Y887D02*
X1828Y887D01*
G04 End of Copper1*
M02*