; NON-PLATED HOLES START AT T1
; THROUGH (PLATED) HOLES START AT T100
M48
INCH
T100C0.051000
T101C0.038000
T102C0.022334
%
T100
X014338Y017887
X014338Y019856
X018275Y018872
T101
X020275Y003872
X020275Y006872
X020275Y017872
X020275Y011872
X015275Y002872
X020275Y004872
X020275Y019872
X020275Y008872
X020275Y005872
X020275Y018872
X020275Y009872
X020275Y012872
X014275Y002872
X020275Y014872
X020275Y015872
X020275Y016872
X020275Y013872
X020275Y010872
X020275Y007872
T102
X011275Y006885
X011275Y004888
X002302Y016870
X002302Y014873
X011275Y007884
X011275Y017869
X011275Y012876
X011275Y018867
X011275Y008882
X002302Y009881
X011275Y013875
X002302Y005887
X011275Y015872
X011275Y010879
X002302Y011878
X002302Y004888
X011275Y016870
X002302Y006885
X002302Y007884
X011275Y014873
X002302Y018867
X002302Y017869
X002302Y012876
X002302Y008882
X002302Y013875
X011275Y009881
X011275Y005887
X002302Y015872
X002302Y010879
X011275Y011878
T00
M30
