G04 MADE WITH FRITZING*
G04 WWW.FRITZING.ORG*
G04 DOUBLE SIDED*
G04 HOLES PLATED*
G04 CONTOUR ON CENTER OF CONTOUR VECTOR*
%ASAXBY*%
%FSLAX23Y23*%
%MOIN*%
%OFA0B0*%
%SFA1.0B1.0*%
%ADD10C,0.078000*%
%ADD11C,0.047859*%
%ADD12C,0.075000*%
%ADD13R,0.078000X0.078000*%
%ADD14R,0.075000X0.075000*%
%ADD15C,0.024000*%
%LNCOPPER1*%
G90*
G70*
G54D10*
X3017Y1993D03*
X3017Y1893D03*
X3017Y1793D03*
X3017Y993D03*
X3017Y893D03*
X3017Y793D03*
X1417Y293D03*
X1517Y293D03*
X3017Y1693D03*
X3017Y1593D03*
X3017Y1493D03*
X3017Y1393D03*
X3017Y1293D03*
X3017Y1193D03*
X3017Y1093D03*
G54D11*
X1117Y1693D03*
X220Y1892D03*
X220Y1792D03*
X220Y1693D03*
X220Y1593D03*
X220Y1493D03*
X1117Y1792D03*
X1117Y1892D03*
X1117Y1593D03*
X220Y1393D03*
X220Y1293D03*
X220Y1193D03*
X220Y1093D03*
X220Y994D03*
X220Y894D03*
X220Y794D03*
X220Y694D03*
X220Y594D03*
X220Y494D03*
X1117Y1193D03*
X1117Y1093D03*
X1117Y994D03*
X1117Y894D03*
X1117Y794D03*
X1117Y694D03*
X1117Y594D03*
X1117Y494D03*
X1117Y1493D03*
X1117Y1393D03*
X1117Y1293D03*
G54D10*
X2217Y293D03*
X2117Y293D03*
X2017Y293D03*
X1917Y293D03*
G54D12*
X1905Y1991D03*
X2117Y1893D03*
X1905Y1794D03*
G54D13*
X3017Y1193D03*
G54D14*
X1905Y1991D03*
G54D15*
X1818Y1093D02*
X1117Y1093D01*
D02*
X1717Y792D02*
X2998Y793D01*
D02*
X1717Y993D02*
X1717Y792D01*
D02*
X1128Y994D02*
X1717Y993D01*
D02*
X1916Y1392D02*
X1916Y1292D01*
D02*
X1916Y1292D02*
X2998Y1293D01*
D02*
X1128Y1393D02*
X1916Y1392D01*
D02*
X1128Y1593D02*
X2998Y1593D01*
D02*
X116Y194D02*
X1516Y194D01*
D02*
X116Y593D02*
X116Y194D01*
D02*
X1516Y194D02*
X1517Y274D01*
D02*
X209Y594D02*
X116Y593D01*
D02*
X1818Y892D02*
X1818Y1093D01*
D02*
X2998Y893D02*
X1818Y892D01*
D02*
X1117Y1093D02*
X1117Y1093D01*
D02*
X2998Y1493D02*
X1128Y1493D01*
D02*
X215Y292D02*
X219Y483D01*
D02*
X1398Y293D02*
X215Y292D01*
D02*
X2817Y1893D02*
X2817Y1792D01*
D02*
X2817Y1792D02*
X2998Y1793D01*
D02*
X1128Y594D02*
X2217Y593D01*
D02*
X2217Y593D02*
X2217Y312D01*
D02*
X2217Y593D02*
X3116Y592D01*
D02*
X3116Y992D02*
X3036Y993D01*
D02*
X3116Y592D02*
X3116Y992D01*
D02*
X3116Y992D02*
X3116Y1094D01*
D02*
X3116Y1694D02*
X3036Y1693D01*
D02*
X3116Y1094D02*
X3116Y1694D01*
D02*
X3116Y1992D02*
X3036Y1993D01*
D02*
X3116Y1694D02*
X3116Y1992D01*
D02*
X3116Y1094D02*
X3036Y1093D01*
D02*
X3116Y1992D02*
X3116Y2094D01*
D02*
X3116Y2094D02*
X1919Y2094D01*
D02*
X1919Y2094D02*
X1907Y2009D01*
D02*
X2998Y1893D02*
X2817Y1893D01*
D02*
X2817Y1893D02*
X2135Y1893D01*
D02*
X918Y1192D02*
X1106Y1193D01*
D02*
X1888Y1794D02*
X1718Y1792D01*
D02*
X1718Y1792D02*
X1718Y1992D01*
D02*
X1718Y1992D02*
X918Y1992D01*
D02*
X918Y1992D02*
X918Y1192D01*
G04 End of Copper1*
M02*