G04 MADE WITH FRITZING*
G04 WWW.FRITZING.ORG*
G04 DOUBLE SIDED*
G04 HOLES PLATED*
G04 CONTOUR ON CENTER OF CONTOUR VECTOR*
%ASAXBY*%
%FSLAX23Y23*%
%MOIN*%
%OFA0B0*%
%SFA1.0B1.0*%
%ADD10C,0.075000*%
%ADD11C,0.078000*%
%ADD12C,0.047859*%
%ADD13R,0.075000X0.075000*%
%ADD14R,0.078000X0.078000*%
%ADD15C,0.024000*%
%LNCOPPER0*%
G90*
G70*
G54D10*
X1905Y1991D03*
X2117Y1893D03*
X1905Y1794D03*
G54D11*
X3017Y1993D03*
X3017Y1893D03*
X3017Y1793D03*
X3017Y993D03*
X3017Y893D03*
X3017Y793D03*
X1417Y293D03*
X1517Y293D03*
X3017Y1693D03*
X3017Y1593D03*
X3017Y1493D03*
X3017Y1393D03*
X3017Y1293D03*
X2217Y293D03*
X2117Y293D03*
X2017Y293D03*
X1917Y293D03*
X3017Y1193D03*
X3017Y1093D03*
G54D12*
X1117Y1693D03*
X220Y1892D03*
X220Y1792D03*
X220Y1693D03*
X220Y1593D03*
X220Y1493D03*
X1117Y1792D03*
X1117Y1892D03*
X1117Y1593D03*
X220Y1393D03*
X220Y1293D03*
X220Y1193D03*
X220Y1093D03*
X220Y994D03*
X220Y894D03*
X220Y794D03*
X220Y694D03*
X220Y594D03*
X220Y494D03*
X1117Y1193D03*
X1117Y1093D03*
X1117Y994D03*
X1117Y894D03*
X1117Y794D03*
X1117Y694D03*
X1117Y594D03*
X1117Y494D03*
X1117Y1493D03*
X1117Y1393D03*
X1117Y1293D03*
G54D13*
X1905Y1991D03*
G54D14*
X3017Y1193D03*
G54D15*
X2117Y493D02*
X1128Y494D01*
D02*
X2117Y312D02*
X2117Y493D01*
D02*
X1918Y194D02*
X1917Y274D01*
D02*
X1016Y191D02*
X1918Y194D01*
D02*
X1016Y1694D02*
X1016Y191D01*
D02*
X1106Y1693D02*
X1016Y1694D01*
D02*
X816Y1792D02*
X1106Y1792D01*
D02*
X2017Y93D02*
X816Y93D01*
D02*
X816Y93D02*
X816Y1792D01*
D02*
X2017Y274D02*
X2017Y93D01*
D02*
X1128Y894D02*
X1617Y892D01*
D02*
X1617Y892D02*
X1617Y1194D01*
D02*
X1617Y1194D02*
X2998Y1193D01*
D02*
X1716Y1493D02*
X1716Y1893D01*
D02*
X1716Y1893D02*
X1128Y1892D01*
D02*
X2998Y1493D02*
X1716Y1493D01*
D02*
X1617Y1393D02*
X1617Y1592D01*
D02*
X1617Y1592D02*
X1128Y1593D01*
D02*
X2998Y1393D02*
X1617Y1393D01*
D02*
X1517Y1294D02*
X2998Y1293D01*
D02*
X1517Y1493D02*
X1517Y1294D01*
D02*
X1128Y1493D02*
X1517Y1493D01*
G04 End of Copper0*
M02*