; NON-PLATED HOLES START AT T1
; THROUGH (PLATED) HOLES START AT T100
M48
INCH
T1C0.125984
T100C0.035000
T101C0.043307
T102C0.030000
T103C0.035433
T104C0.038000
%
T1
X001769Y022281
X032769Y022281
X032769Y001281
X001769Y001281
T100
X004769Y016281
X003769Y016281
X004769Y020281
X003769Y020281
X017889Y020297
X015769Y019313
X015769Y021281
T101
X029769Y008281
X029769Y009281
T102
X005769Y019279
X005769Y020281
T103
X022769Y019281
X022769Y021840
T104
X001769Y011281
X029769Y016281
X001769Y009281
X001769Y008281
X029769Y014281
X013769Y004281
X029769Y017281
X010769Y013281
X029769Y015281
X014769Y004281
X010769Y018281
X001769Y012281
X029769Y020281
X010769Y019281
X010769Y011281
X021769Y004281
X010769Y008281
X010769Y009281
X001769Y013281
X020769Y004281
X001769Y019281
X010769Y012281
X001769Y018281
X029769Y018281
X029769Y019281
X010769Y020281
X001769Y006281
X010769Y014281
X010769Y015281
X029769Y013281
X010769Y017281
X001769Y007281
X018769Y004281
X010769Y016281
X010769Y010281
X001769Y020281
X029769Y021281
X029769Y012281
X019769Y004281
X001769Y015281
X001769Y017281
X001769Y014281
X010769Y006281
X001769Y010281
X001769Y016281
X029769Y011281
X010769Y007281
T00
M30
