G04 MADE WITH FRITZING*
G04 WWW.FRITZING.ORG*
G04 DOUBLE SIDED*
G04 HOLES PLATED*
G04 CONTOUR ON CENTER OF CONTOUR VECTOR*
%ASAXBY*%
%FSLAX23Y23*%
%MOIN*%
%OFA0B0*%
%SFA1.0B1.0*%
%ADD10C,0.078000*%
%ADD11C,0.075000*%
%ADD12R,0.075000X0.075000*%
%ADD13R,0.078000X0.078000*%
%ADD14C,0.024000*%
%LNCOPPER1*%
G90*
G70*
G54D10*
X217Y1893D03*
X217Y1793D03*
X217Y1693D03*
X217Y1593D03*
X217Y1493D03*
X217Y1393D03*
X217Y1293D03*
X217Y1193D03*
X217Y1093D03*
X217Y993D03*
X217Y893D03*
X217Y793D03*
X217Y693D03*
X217Y593D03*
X217Y493D03*
X1117Y493D03*
X1117Y593D03*
X1117Y693D03*
X1117Y793D03*
X1117Y893D03*
X1117Y993D03*
X1117Y1093D03*
X1117Y1193D03*
X1117Y1293D03*
X1117Y1393D03*
X1117Y1493D03*
X1117Y1593D03*
X1117Y1693D03*
X1117Y1793D03*
X1117Y1893D03*
G54D11*
X1905Y1991D03*
X2117Y1893D03*
X1905Y1794D03*
G54D10*
X3017Y1993D03*
X3017Y1893D03*
X3017Y1793D03*
X3017Y993D03*
X3017Y893D03*
X3017Y793D03*
X1417Y293D03*
X1517Y293D03*
X3017Y1693D03*
X3017Y1593D03*
X3017Y1493D03*
X3017Y1393D03*
X3017Y1293D03*
X2217Y293D03*
X2117Y293D03*
X2017Y293D03*
X1917Y293D03*
X3017Y1193D03*
X3017Y1093D03*
G54D12*
X1905Y1991D03*
G54D13*
X3017Y1193D03*
G54D14*
X917Y1191D02*
X917Y1994D01*
D02*
X917Y1994D02*
X1715Y1994D01*
D02*
X1715Y1994D02*
X1715Y1792D01*
D02*
X1715Y1792D02*
X1888Y1794D01*
D02*
X1098Y1193D02*
X917Y1191D01*
D02*
X2817Y1893D02*
X2135Y1893D01*
D02*
X2998Y1893D02*
X2817Y1893D01*
D02*
X2817Y1792D02*
X2998Y1793D01*
D02*
X2817Y1893D02*
X2817Y1792D01*
D02*
X1918Y2092D02*
X1907Y2009D01*
D02*
X3016Y2092D02*
X1918Y2092D01*
D02*
X3017Y2012D02*
X3016Y2092D01*
D02*
X3116Y1992D02*
X3116Y1691D01*
D02*
X3017Y1993D02*
X3116Y1992D01*
D02*
X3116Y1691D02*
X3036Y1692D01*
D02*
X3116Y1691D02*
X3116Y1092D01*
D02*
X3116Y1092D02*
X3036Y1093D01*
D02*
X2216Y593D02*
X2217Y312D01*
D02*
X3116Y1092D02*
X3116Y593D01*
D02*
X3116Y593D02*
X2216Y593D01*
D02*
X3116Y1092D02*
X3116Y993D01*
D02*
X3116Y993D02*
X3036Y993D01*
D02*
X2216Y593D02*
X1136Y593D01*
D02*
X1398Y293D02*
X217Y292D01*
D02*
X217Y292D02*
X217Y474D01*
D02*
X316Y394D02*
X1517Y394D01*
D02*
X236Y593D02*
X316Y593D01*
D02*
X316Y593D02*
X316Y394D01*
D02*
X1517Y394D02*
X1517Y312D01*
D02*
X1136Y1393D02*
X2517Y1393D01*
D02*
X2517Y1592D02*
X2998Y1593D01*
D02*
X2517Y1393D02*
X2517Y1592D01*
D02*
X1136Y993D02*
X1818Y993D01*
D02*
X1818Y993D02*
X1818Y791D01*
D02*
X1818Y791D02*
X2998Y793D01*
D02*
X1918Y1092D02*
X1918Y894D01*
D02*
X1918Y894D02*
X2998Y893D01*
D02*
X1136Y1093D02*
X1918Y1092D01*
G04 End of Copper1*
M02*