G04 MADE WITH FRITZING*
G04 WWW.FRITZING.ORG*
G04 DOUBLE SIDED*
G04 HOLES PLATED*
G04 CONTOUR ON CENTER OF CONTOUR VECTOR*
%ASAXBY*%
%FSLAX23Y23*%
%MOIN*%
%OFA0B0*%
%SFA1.0B1.0*%
%ADD10C,0.070000*%
%ADD11C,0.075000*%
%ADD12C,0.078000*%
%ADD13C,0.083307*%
%ADD14R,0.075000X0.075000*%
%ADD15C,0.024000*%
%LNCOPPER0*%
G90*
G70*
G54D10*
X577Y1928D03*
X577Y2028D03*
G54D11*
X377Y2028D03*
X377Y1628D03*
X477Y1628D03*
X477Y2028D03*
G54D12*
X177Y2028D03*
X177Y1928D03*
X177Y1828D03*
X177Y1728D03*
X177Y1628D03*
X177Y1528D03*
X177Y1428D03*
X177Y1328D03*
X177Y1228D03*
X177Y1128D03*
X177Y1028D03*
X177Y928D03*
X177Y828D03*
X177Y728D03*
X177Y628D03*
X1077Y628D03*
X1077Y728D03*
X1077Y828D03*
X1077Y928D03*
X1077Y1028D03*
X1077Y1128D03*
X1077Y1228D03*
X1077Y1328D03*
X1077Y1428D03*
X1077Y1528D03*
X1077Y1628D03*
X1077Y1728D03*
X1077Y1828D03*
X1077Y1928D03*
X1077Y2028D03*
G54D11*
X1577Y2128D03*
X1789Y2030D03*
X1577Y1931D03*
G54D12*
X2977Y2128D03*
X2977Y2028D03*
X2977Y1928D03*
G54D13*
X2977Y928D03*
X2977Y828D03*
G54D12*
X2977Y1328D03*
X2977Y1228D03*
X2977Y1128D03*
X1377Y428D03*
X1477Y428D03*
X2977Y1828D03*
X2977Y1728D03*
X2977Y1628D03*
X2977Y1528D03*
X2977Y1428D03*
X2177Y428D03*
X2077Y428D03*
X1977Y428D03*
X1877Y428D03*
G54D10*
X2277Y2184D03*
X2277Y1928D03*
G54D14*
X1577Y2128D03*
G54D15*
X375Y229D02*
X377Y1611D01*
D02*
X2877Y428D02*
X2877Y129D01*
D02*
X2877Y129D02*
X375Y129D01*
D02*
X375Y129D02*
X375Y229D01*
D02*
X2955Y928D02*
X2878Y927D01*
D02*
X2878Y927D02*
X2877Y428D01*
D02*
X3176Y829D02*
X3176Y2129D01*
D02*
X3176Y2129D02*
X3078Y2328D01*
D02*
X3078Y2328D02*
X678Y2328D01*
D02*
X678Y2328D02*
X676Y2029D01*
D02*
X676Y2029D02*
X587Y1939D01*
D02*
X2977Y829D02*
X2977Y829D01*
D02*
X2977Y829D02*
X3176Y829D01*
D02*
X776Y328D02*
X1878Y328D01*
D02*
X1878Y328D02*
X1877Y409D01*
D02*
X776Y1827D02*
X776Y328D01*
D02*
X1058Y1828D02*
X776Y1827D01*
D02*
X677Y229D02*
X1977Y229D01*
D02*
X1977Y229D02*
X1977Y409D01*
D02*
X677Y1929D02*
X677Y229D01*
D02*
X1058Y1928D02*
X677Y1929D01*
D02*
X1176Y1430D02*
X2958Y1428D01*
D02*
X1176Y1628D02*
X1176Y1430D01*
D02*
X1096Y1628D02*
X1176Y1628D01*
D02*
X1275Y1529D02*
X1275Y1628D01*
D02*
X1275Y1628D02*
X1176Y1727D01*
D02*
X1477Y1529D02*
X1275Y1529D01*
D02*
X1176Y1727D02*
X1096Y1728D01*
D02*
X2958Y1528D02*
X1477Y1529D01*
D02*
X1378Y1628D02*
X2958Y1628D01*
D02*
X1378Y1929D02*
X1378Y1628D01*
D02*
X1275Y2029D02*
X1378Y1929D01*
D02*
X1096Y2028D02*
X1275Y2029D01*
D02*
X2476Y1929D02*
X2476Y2227D01*
D02*
X2295Y1928D02*
X2476Y1929D01*
D02*
X3078Y1029D02*
X1096Y1028D01*
D02*
X2476Y2227D02*
X3078Y2227D01*
D02*
X3078Y2227D02*
X3078Y1029D01*
G04 End of Copper0*
M02*