G04 MADE WITH FRITZING*
G04 WWW.FRITZING.ORG*
G04 DOUBLE SIDED*
G04 HOLES PLATED*
G04 CONTOUR ON CENTER OF CONTOUR VECTOR*
%ASAXBY*%
%FSLAX23Y23*%
%MOIN*%
%OFA0B0*%
%SFA1.0B1.0*%
%ADD10C,0.078000*%
%ADD11C,0.075000*%
%ADD12R,0.075000X0.075000*%
%ADD13R,0.078000X0.078000*%
%ADD14C,0.024000*%
%LNCOPPER0*%
G90*
G70*
G54D10*
X217Y1893D03*
X217Y1793D03*
X217Y1693D03*
X217Y1593D03*
X217Y1493D03*
X217Y1393D03*
X217Y1293D03*
X217Y1193D03*
X217Y1093D03*
X217Y993D03*
X217Y893D03*
X217Y793D03*
X217Y693D03*
X217Y593D03*
X217Y493D03*
X1117Y493D03*
X1117Y593D03*
X1117Y693D03*
X1117Y793D03*
X1117Y893D03*
X1117Y993D03*
X1117Y1093D03*
X1117Y1193D03*
X1117Y1293D03*
X1117Y1393D03*
X1117Y1493D03*
X1117Y1593D03*
X1117Y1693D03*
X1117Y1793D03*
X1117Y1893D03*
G54D11*
X1905Y1991D03*
X2117Y1893D03*
X1905Y1794D03*
G54D10*
X3017Y1993D03*
X3017Y1893D03*
X3017Y1793D03*
X3017Y993D03*
X3017Y893D03*
X3017Y793D03*
X1417Y293D03*
X1517Y293D03*
X3017Y1693D03*
X3017Y1593D03*
X3017Y1493D03*
X3017Y1393D03*
X3017Y1293D03*
X2217Y293D03*
X2117Y293D03*
X2017Y293D03*
X1917Y293D03*
X3017Y1193D03*
X3017Y1093D03*
G54D12*
X1905Y1991D03*
G54D13*
X3017Y1193D03*
G54D14*
X816Y192D02*
X1918Y192D01*
D02*
X1918Y192D02*
X1917Y274D01*
D02*
X816Y1691D02*
X816Y192D01*
D02*
X1098Y1693D02*
X816Y1691D01*
D02*
X717Y93D02*
X2017Y93D01*
D02*
X2017Y93D02*
X2017Y274D01*
D02*
X717Y1794D02*
X717Y93D01*
D02*
X1098Y1793D02*
X717Y1794D01*
D02*
X2116Y1192D02*
X2116Y894D01*
D02*
X2116Y894D02*
X1136Y893D01*
D02*
X2998Y1193D02*
X2116Y1192D01*
D02*
X1316Y1294D02*
X2998Y1293D01*
D02*
X1316Y1493D02*
X1316Y1294D01*
D02*
X1136Y1493D02*
X1316Y1493D01*
D02*
X1517Y1393D02*
X1517Y1592D01*
D02*
X1517Y1592D02*
X1136Y1593D01*
D02*
X2998Y1393D02*
X1517Y1393D01*
D02*
X1617Y1493D02*
X2998Y1493D01*
D02*
X1617Y1893D02*
X1617Y1493D01*
D02*
X1136Y1893D02*
X1617Y1893D01*
D02*
X2116Y493D02*
X1136Y493D01*
D02*
X2117Y312D02*
X2116Y493D01*
G04 End of Copper0*
M02*