G04 MADE WITH FRITZING*
G04 WWW.FRITZING.ORG*
G04 DOUBLE SIDED*
G04 HOLES PLATED*
G04 CONTOUR ON CENTER OF CONTOUR VECTOR*
%ASAXBY*%
%FSLAX23Y23*%
%MOIN*%
%OFA0B0*%
%SFA1.0B1.0*%
%ADD10C,0.078000*%
%ADD11C,0.075000*%
%ADD12C,0.070000*%
%ADD13C,0.083307*%
%ADD14R,0.075000X0.075000*%
%ADD15R,0.078000X0.078000*%
%ADD16C,0.024000*%
%LNCOPPER1*%
G90*
G70*
G54D10*
X158Y2040D03*
X158Y1940D03*
X158Y1840D03*
X158Y1740D03*
X158Y1640D03*
X158Y1540D03*
X158Y1440D03*
X158Y1340D03*
X158Y1240D03*
X158Y1140D03*
X158Y1040D03*
X158Y940D03*
X158Y840D03*
X158Y740D03*
X158Y640D03*
X1058Y640D03*
X1058Y740D03*
X1058Y840D03*
X1058Y940D03*
X1058Y1040D03*
X1058Y1140D03*
X1058Y1240D03*
X1058Y1340D03*
X1058Y1440D03*
X1058Y1540D03*
X1058Y1640D03*
X1058Y1740D03*
X1058Y1840D03*
X1058Y1940D03*
X1058Y2040D03*
G54D11*
X1846Y2138D03*
X2058Y2040D03*
X1846Y1941D03*
G54D10*
X2958Y2140D03*
X2958Y2040D03*
X2958Y1940D03*
X2958Y1140D03*
X2958Y1040D03*
X2958Y940D03*
X1358Y440D03*
X1458Y440D03*
X2958Y1840D03*
X2958Y1740D03*
X2958Y1640D03*
X2958Y1540D03*
X2958Y1440D03*
X2158Y440D03*
X2058Y440D03*
X1958Y440D03*
X1858Y440D03*
X2958Y1340D03*
X2958Y1240D03*
G54D12*
X558Y1939D03*
X558Y2040D03*
G54D11*
X458Y1640D03*
X458Y2040D03*
X358Y2040D03*
X358Y1640D03*
G54D13*
X2958Y840D03*
X2958Y740D03*
G54D14*
X1846Y2138D03*
G54D15*
X2958Y1340D03*
G54D16*
X3057Y1239D02*
X2977Y1240D01*
D02*
X3057Y1838D02*
X3057Y1239D01*
D02*
X3057Y1838D02*
X2977Y1839D01*
D02*
X3057Y2139D02*
X3057Y1838D01*
D02*
X2958Y2140D02*
X3057Y2139D01*
D02*
X2958Y2239D02*
X1859Y2239D01*
D02*
X1859Y2239D02*
X1848Y2155D01*
D02*
X2958Y2159D02*
X2958Y2239D01*
D02*
X1360Y1041D02*
X2939Y1040D01*
D02*
X1157Y1239D02*
X1360Y1239D01*
D02*
X1360Y1239D02*
X1360Y1041D01*
D02*
X1077Y1240D02*
X1157Y1239D01*
D02*
X1257Y938D02*
X2939Y940D01*
D02*
X1257Y1140D02*
X1257Y938D01*
D02*
X1077Y1140D02*
X1257Y1140D01*
D02*
X2458Y1540D02*
X2458Y1739D01*
D02*
X2458Y1739D02*
X2939Y1740D01*
D02*
X1077Y1540D02*
X2458Y1540D01*
D02*
X1459Y541D02*
X1458Y459D01*
D02*
X258Y541D02*
X1459Y541D01*
D02*
X258Y740D02*
X258Y541D01*
D02*
X177Y740D02*
X258Y740D01*
D02*
X158Y439D02*
X158Y621D01*
D02*
X1339Y440D02*
X158Y439D01*
D02*
X2157Y740D02*
X1077Y740D01*
D02*
X3057Y1140D02*
X2977Y1140D01*
D02*
X3057Y1239D02*
X3057Y1140D01*
D02*
X2157Y740D02*
X2158Y459D01*
D02*
X3057Y438D02*
X2458Y438D01*
D02*
X2458Y438D02*
X2157Y438D01*
D02*
X2157Y438D02*
X2157Y740D01*
D02*
X3057Y1239D02*
X3057Y438D01*
D02*
X858Y1338D02*
X858Y2141D01*
D02*
X858Y2141D02*
X1656Y2141D01*
D02*
X1656Y2141D02*
X1656Y1939D01*
D02*
X1656Y1939D02*
X1829Y1941D01*
D02*
X1039Y1340D02*
X858Y1338D01*
D02*
X2758Y2040D02*
X2076Y2040D01*
D02*
X2939Y2040D02*
X2758Y2040D01*
D02*
X2759Y1939D02*
X2939Y1940D01*
D02*
X2758Y2040D02*
X2759Y1939D01*
D02*
X177Y2040D02*
X341Y2040D01*
D02*
X358Y2040D02*
X441Y2040D01*
D02*
X458Y2040D02*
X543Y2040D01*
D02*
X177Y1140D02*
X357Y1140D01*
D02*
X357Y1140D02*
X358Y1622D01*
D02*
X460Y1041D02*
X177Y1040D01*
D02*
X458Y1622D02*
X460Y1041D01*
G04 End of Copper1*
M02*