; NON-PLATED HOLES START AT T1
; THROUGH (PLATED) HOLES START AT T100
M48
INCH
T100C0.035000
T101C0.038000
%
T100
X021170Y018927
X019050Y017943
X019050Y019911
T101
X011170Y016927
X014170Y002927
X002170Y017927
X011170Y014927
X030170Y012927
X011170Y010927
X015170Y002927
X002170Y018927
X002170Y008927
X021170Y002927
X002170Y011927
X020170Y002927
X011170Y004927
X002170Y007927
X019170Y002927
X030170Y015927
X011170Y006927
X002170Y013927
X011170Y012927
X030170Y010927
X011170Y005927
X030170Y016927
X030170Y014927
X011170Y015927
X002170Y009927
X030170Y007927
X002170Y015927
X030170Y013927
X030170Y008927
X011170Y009927
X030170Y011927
X002170Y012927
X022170Y002927
X030170Y018927
X002170Y005927
X030170Y017927
X030170Y009927
X011170Y008927
X011170Y011927
X011170Y007927
X002170Y004927
X011170Y013927
X002170Y006927
X002170Y016927
X002170Y014927
X011170Y017927
X002170Y010927
X011170Y018927
X030170Y019927
T00
M30
