G04 MADE WITH FRITZING*
G04 WWW.FRITZING.ORG*
G04 DOUBLE SIDED*
G04 HOLES PLATED*
G04 CONTOUR ON CENTER OF CONTOUR VECTOR*
%ASAXBY*%
%FSLAX23Y23*%
%MOIN*%
%OFA0B0*%
%SFA1.0B1.0*%
%ADD10C,0.080000*%
%ADD11C,0.085000*%
%ADD12C,0.135984*%
%ADD13C,0.088000*%
%ADD14C,0.093307*%
%ADD15R,0.085000X0.085000*%
%LNMASK1*%
G90*
G70*
G54D10*
X577Y1928D03*
X577Y2028D03*
G54D11*
X377Y2028D03*
X377Y1628D03*
X477Y1628D03*
X477Y2028D03*
G54D12*
X3277Y2228D03*
X3277Y128D03*
X177Y2228D03*
X177Y128D03*
G54D13*
X177Y2028D03*
X177Y1928D03*
X177Y1828D03*
X177Y1728D03*
X177Y1628D03*
X177Y1528D03*
X177Y1428D03*
X177Y1328D03*
X177Y1228D03*
X177Y1128D03*
X177Y1028D03*
X177Y928D03*
X177Y828D03*
X177Y728D03*
X177Y628D03*
X1077Y628D03*
X1077Y728D03*
X1077Y828D03*
X1077Y928D03*
X1077Y1028D03*
X1077Y1128D03*
X1077Y1228D03*
X1077Y1328D03*
X1077Y1428D03*
X1077Y1528D03*
X1077Y1628D03*
X1077Y1728D03*
X1077Y1828D03*
X1077Y1928D03*
X1077Y2028D03*
G54D11*
X1577Y2128D03*
X1789Y2030D03*
X1577Y1931D03*
G54D13*
X2977Y2128D03*
X2977Y2028D03*
X2977Y1928D03*
G54D14*
X2977Y928D03*
X2977Y828D03*
G54D13*
X2977Y1328D03*
X2977Y1228D03*
X2977Y1128D03*
X1377Y428D03*
X1477Y428D03*
X2977Y1828D03*
X2977Y1728D03*
X2977Y1628D03*
X2977Y1528D03*
X2977Y1428D03*
X2177Y428D03*
X2077Y428D03*
X1977Y428D03*
X1877Y428D03*
G54D10*
X2277Y2184D03*
X2277Y1928D03*
X2277Y2184D03*
X2277Y1928D03*
G54D15*
X1577Y2128D03*
G04 End of Mask1*
M02*