; NON-PLATED HOLES START AT T1
; THROUGH (PLATED) HOLES START AT T100
M48
INCH
T1C0.125984
T100C0.030000
T101C0.035000
T102C0.038000
T103C0.043307
%
T1
X031582Y022396
X001582Y001396
X001582Y022396
X031582Y001396
T100
X005582Y019394
X005582Y020396
T101
X018462Y021380
X003582Y016396
X004582Y016396
X020582Y020396
X004582Y020396
X003582Y020396
X018462Y019412
T102
X010582Y009396
X029582Y014396
X029582Y010396
X010582Y012396
X010582Y017396
X010582Y020396
X001582Y016396
X029582Y013396
X001582Y015396
X010582Y008396
X001582Y007396
X029582Y017396
X029582Y012396
X021582Y004396
X014582Y004396
X010582Y010396
X010582Y014396
X001582Y011396
X001582Y019396
X029582Y009396
X001582Y018396
X029582Y020396
X010582Y013396
X010582Y006396
X019582Y004396
X010582Y016396
X001582Y020396
X029582Y018396
X010582Y015396
X001582Y008396
X029582Y019396
X029582Y011396
X001582Y009396
X001582Y017396
X001582Y012396
X010582Y018396
X029582Y015396
X020582Y004396
X029582Y016396
X001582Y013396
X001582Y006396
X013582Y004396
X029582Y021396
X010582Y007396
X010582Y011396
X010582Y019396
X001582Y010396
X001582Y014396
X018582Y004396
T103
X029582Y007396
X029582Y008396
T00
M30
