G04 MADE WITH FRITZING*
G04 WWW.FRITZING.ORG*
G04 DOUBLE SIDED*
G04 HOLES PLATED*
G04 CONTOUR ON CENTER OF CONTOUR VECTOR*
%ASAXBY*%
%FSLAX23Y23*%
%MOIN*%
%OFA0B0*%
%SFA1.0B1.0*%
%ADD10C,0.101000*%
%ADD11C,0.088000*%
%ADD12C,0.057829*%
%ADD13C,0.088740*%
%ADD14R,0.101000X0.101000*%
%ADD15R,0.088000X0.088000*%
%ADD16R,0.088740X0.108425*%
%ADD17R,0.108425X0.088740*%
%ADD18R,0.057244X0.108425*%
%LNMASK1*%
G90*
G70*
G54D10*
X1371Y2013D03*
X1764Y1915D03*
X1371Y1816D03*
G54D11*
X1964Y2015D03*
X1964Y1915D03*
X1964Y1815D03*
X1364Y315D03*
X1464Y315D03*
X1964Y1715D03*
X1964Y1615D03*
X1964Y1515D03*
X1964Y1415D03*
X1964Y1315D03*
X1964Y715D03*
X1964Y615D03*
X1964Y515D03*
X1964Y415D03*
X1964Y1215D03*
X1964Y1115D03*
G54D12*
X1064Y1714D03*
X167Y1914D03*
X167Y1814D03*
X167Y1714D03*
X167Y1615D03*
X167Y1515D03*
X1064Y1814D03*
X1064Y1914D03*
X1064Y1615D03*
X167Y1415D03*
X167Y1315D03*
X167Y1215D03*
X167Y1115D03*
X167Y1015D03*
X167Y916D03*
X167Y816D03*
X167Y716D03*
X167Y616D03*
X167Y516D03*
X1064Y1215D03*
X1064Y1115D03*
X1064Y1015D03*
X1064Y916D03*
X1064Y816D03*
X1064Y716D03*
X1064Y616D03*
X1064Y516D03*
X1064Y1515D03*
X1064Y1415D03*
X1064Y1315D03*
G54D13*
X2225Y879D03*
X1950Y879D03*
X2225Y879D03*
X1950Y879D03*
G54D14*
X1370Y2013D03*
G54D15*
X1964Y1215D03*
G54D16*
X2264Y1015D03*
X1902Y1015D03*
X2194Y743D03*
G54D17*
X1743Y849D03*
G54D18*
X2304Y743D03*
G04 End of Mask1*
M02*