G04 MADE WITH FRITZING*
G04 WWW.FRITZING.ORG*
G04 DOUBLE SIDED*
G04 HOLES PLATED*
G04 CONTOUR ON CENTER OF CONTOUR VECTOR*
%ASAXBY*%
%FSLAX23Y23*%
%MOIN*%
%OFA0B0*%
%SFA1.0B1.0*%
%ADD10C,0.091000*%
%ADD11C,0.078000*%
%ADD12C,0.047859*%
%ADD13R,0.091000X0.091000*%
%ADD14R,0.078000X0.078000*%
%ADD15C,0.024000*%
%LNCOPPER0*%
G90*
G70*
G54D10*
X1371Y2013D03*
X1764Y1915D03*
X1371Y1816D03*
G54D11*
X1964Y2015D03*
X1964Y1915D03*
X1964Y1815D03*
X1364Y315D03*
X1464Y315D03*
X1964Y1715D03*
X1964Y1615D03*
X1964Y1515D03*
X1964Y1415D03*
X1964Y1315D03*
X1964Y715D03*
X1964Y615D03*
X1964Y515D03*
X1964Y415D03*
X1964Y1215D03*
X1964Y1115D03*
G54D12*
X1064Y1714D03*
X167Y1914D03*
X167Y1814D03*
X167Y1714D03*
X167Y1615D03*
X167Y1515D03*
X1064Y1814D03*
X1064Y1914D03*
X1064Y1615D03*
X167Y1415D03*
X167Y1315D03*
X167Y1215D03*
X167Y1115D03*
X167Y1015D03*
X167Y916D03*
X167Y816D03*
X167Y716D03*
X167Y616D03*
X167Y516D03*
X1064Y1215D03*
X1064Y1115D03*
X1064Y1015D03*
X1064Y916D03*
X1064Y816D03*
X1064Y716D03*
X1064Y616D03*
X1064Y516D03*
X1064Y1515D03*
X1064Y1415D03*
X1064Y1315D03*
G54D13*
X1370Y2013D03*
G54D14*
X1964Y1215D03*
G54D15*
X1564Y1414D02*
X1945Y1415D01*
D02*
X1564Y1713D02*
X1564Y1414D01*
D02*
X1564Y1914D02*
X1564Y1713D01*
D02*
X1066Y1913D02*
X1564Y1914D01*
D02*
X1066Y1913D02*
X1066Y1913D01*
D02*
X1564Y216D02*
X2064Y215D01*
D02*
X863Y216D02*
X1564Y216D01*
D02*
X2064Y215D02*
X2064Y615D01*
D02*
X2064Y615D02*
X1983Y615D01*
D02*
X863Y1714D02*
X863Y216D01*
D02*
X1053Y1714D02*
X863Y1714D01*
D02*
X2165Y716D02*
X1983Y715D01*
D02*
X2165Y115D02*
X2165Y716D01*
D02*
X766Y115D02*
X2165Y115D01*
D02*
X766Y1816D02*
X766Y115D01*
D02*
X1053Y1814D02*
X766Y1816D01*
D02*
X1076Y916D02*
X1564Y914D01*
D02*
X1564Y914D02*
X1564Y1216D01*
D02*
X1564Y1216D02*
X1945Y1215D01*
G04 End of Copper0*
M02*