; NON-PLATED HOLES START AT T1
; THROUGH (PLATED) HOLES START AT T100
M48
INCH
T1C0.078740
T100C0.022334
T101C0.038000
T102C0.051000
%
T1
X022251Y008787
X019495Y008787
T100
X010644Y007159
X001671Y005162
X010644Y010154
X001671Y011152
X001671Y013149
X001671Y019140
X010644Y017143
X001671Y012151
X001671Y015146
X001671Y006160
X001671Y009156
X010644Y008157
X010644Y018142
X001671Y014148
X001671Y016145
X010644Y011152
X001671Y010154
X010644Y005162
X001671Y007159
X010644Y015146
X010644Y019140
X010644Y013149
X010644Y012151
X001671Y017143
X010644Y014148
X010644Y016145
X001671Y008157
X010644Y009156
X010644Y006160
X001671Y018142
T101
X019644Y018145
X019644Y012145
X019644Y014145
X019644Y005145
X019644Y017145
X019644Y007145
X019644Y015145
X019644Y004145
X019644Y011145
X019644Y019145
X013644Y003145
X019644Y016145
X014644Y003145
X019644Y020145
X019644Y006145
X019644Y013145
T102
X017644Y019145
X013707Y020129
X013707Y018161
T00
M30
